<?xml version="1.0" encoding="UTF-8" standalone="no"?>
<svg
   width="417.71353"
   zoomAndPan="magnify"
   viewBox="0 0 313.28515 361.5"
   height="482"
   preserveAspectRatio="xMidYMid"
   version="1.0"
   id="svg59"
   xmlns="http://www.w3.org/2000/svg"
   xmlns:svg="http://www.w3.org/2000/svg">
  <defs
     id="defs5">
    <clipPath
       id="2e70a56224">
      <path
         d="m 356,254.11719 h 49 v 213.27734 h -49 z m 0,0"
         clip-rule="nonzero"
         id="path1" />
    </clipPath>
    <clipPath
       id="b2fbc7cad0">
      <path
         d="m 356,105.89453 h 49 V 231 h -49 z m 0,0"
         clip-rule="nonzero"
         id="path2" />
    </clipPath>
    <clipPath
       id="363d8534d1">
      <path
         d="m 508,172.40625 h 53.60156 V 401 H 508 Z m 0,0"
         clip-rule="nonzero"
         id="path3" />
    </clipPath>
    <clipPath
       id="ccb06dfe9d">
      <path
         d="M 404.14062,343 H 454 v 124.39453 h -49.85938 z m 0,0"
         clip-rule="nonzero"
         id="path4" />
    </clipPath>
    <clipPath
       id="faa8552de8">
      <path
         d="m 404,105.89453 h 50 V 320 h -50 z m 0,0"
         clip-rule="nonzero"
         id="path5" />
    </clipPath>
  </defs>
  <g
     clip-path="url(#2e70a56224)"
     id="g6"
     transform="translate(-248.31641,-105.89453)">
    <path
       fill="#004aad"
       d="m 361.02344,442.28516 43.9414,25.37109 V 343.20703 l -48.84375,-89.06641 v 179.66797 c 0,3.4961 1.8711,6.72266 4.90235,8.47657"
       fill-opacity="1"
       fill-rule="nonzero"
       id="path6" />
  </g>
  <path
     fill="#004aad"
     d="M 53.542957,285.27344 V 76.488279 c 0,-7.54297 -8.156247,-12.25 -14.683587,-8.48437 L 4.89453,87.613279 C 1.86328,89.367189 0,92.593749 0,96.089839 V 265.67188 c 0,3.49609 1.86328,6.72265 4.89453,8.47656 l 33.96484,19.60937 c 6.52734,3.76563 14.683587,-0.9414 14.683587,-8.48437"
     fill-opacity="1"
     fill-rule="nonzero"
     id="path7" />
  <g
     clip-path="url(#b2fbc7cad0)"
     id="g8"
     transform="translate(-248.31641,-105.89453)">
    <path
       fill="#004aad"
       d="M 404.96484,230.33984 V 105.89453 l -44.53125,25.71484 c -2.66406,1.53516 -4.3125,4.37891 -4.3125,7.45313 0,1.45312 0.3711,2.87109 1.0625,4.14062 l 47.78125,87.13672"
       fill-opacity="1"
       fill-rule="nonzero"
       id="path8" />
  </g>
  <g
     clip-path="url(#363d8534d1)"
     id="g9"
     transform="translate(-248.31641,-105.89453)">
    <path
       fill="#ffffff"
       d="m 522.74609,399.65234 33.96875,-19.60937 c 3.02735,-1.75391 4.89063,-4.98047 4.89063,-8.47656 V 201.98437 c 0,-3.49609 -1.86328,-6.72265 -4.89063,-8.47656 l -33.96875,-19.60937 c -6.52343,-3.76563 -14.67968,0.9414 -14.67968,8.48437 v 208.78516 c 0,7.54297 8.15625,12.25 14.67968,8.48437"
       fill-opacity="1"
       fill-rule="nonzero"
       id="path9" />
  </g>
  <g
     clip-path="url(#ccb06dfe9d)"
     id="g10"
     transform="translate(-248.31641,-105.89453)">
    <path
       fill="#ffffff"
       d="m 453.80078,434.48828 c 0,-1.45312 -0.36328,-2.87109 -1.05859,-4.14062 l -47.77735,-87.14063 v 124.44922 l 44.53125,-25.71484 c 2.66407,-1.53516 4.30469,-4.37891 4.30469,-7.45313"
       fill-opacity="1"
       fill-rule="nonzero"
       id="path10" />
  </g>
  <g
     clip-path="url(#faa8552de8)"
     id="g11"
     transform="translate(-248.31641,-105.89453)">
    <path
       fill="#ffffff"
       d="M 453.80078,319.41016 V 139.74219 c 0,-3.4961 -1.86719,-6.72266 -4.89844,-8.47657 l -43.9375,-25.37109 v 124.44531 l 48.83594,89.07032"
       fill-opacity="1"
       fill-rule="nonzero"
       id="path11" />
  </g>
</svg>
