<?xml version="1.0" encoding="UTF-8" standalone="no"?>
<svg
   width="585.91992"
   zoomAndPan="magnify"
   viewBox="0 0 439.43994 561.60493"
   height="748.80658"
   preserveAspectRatio="xMidYMid"
   version="1.0"
   id="svg59"
   xmlns="http://www.w3.org/2000/svg"
   xmlns:svg="http://www.w3.org/2000/svg">
  <defs
     id="defs5">
    <clipPath
       id="2e70a56224">
      <path
         d="m 356,254.11719 h 49 v 213.27734 h -49 z m 0,0"
         clip-rule="nonzero"
         id="path1" />
    </clipPath>
    <clipPath
       id="b2fbc7cad0">
      <path
         d="m 356,105.89453 h 49 V 231 h -49 z m 0,0"
         clip-rule="nonzero"
         id="path2" />
    </clipPath>
    <clipPath
       id="363d8534d1">
      <path
         d="m 508,172.40625 h 53.60156 V 401 H 508 Z m 0,0"
         clip-rule="nonzero"
         id="path3" />
    </clipPath>
    <clipPath
       id="ccb06dfe9d">
      <path
         d="M 404.14062,343 H 454 v 124.39453 h -49.85938 z m 0,0"
         clip-rule="nonzero"
         id="path4" />
    </clipPath>
    <clipPath
       id="faa8552de8">
      <path
         d="m 404,105.89453 h 50 V 320 h -50 z m 0,0"
         clip-rule="nonzero"
         id="path5" />
    </clipPath>
  </defs>
  <g
     clip-path="url(#2e70a56224)"
     id="g6"
     transform="translate(-194.80249,-105.89453)">
    <path
       fill="#004aad"
       d="m 361.02344,442.28516 43.9414,25.37109 V 343.20703 l -48.84375,-89.06641 v 179.66797 c 0,3.4961 1.8711,6.72266 4.90235,8.47657"
       fill-opacity="1"
       fill-rule="nonzero"
       id="path6" />
  </g>
  <path
     fill="#004aad"
     d="M 107.05688,285.27344 V 76.488279 c 0,-7.54297 -8.156247,-12.25 -14.683587,-8.48437 l -33.96484,19.60937 c -3.03125,1.75391 -4.89453,4.98047 -4.89453,8.47656 V 265.67188 c 0,3.49609 1.86328,6.72265 4.89453,8.47656 l 33.96484,19.60937 c 6.52734,3.76563 14.683587,-0.9414 14.683587,-8.48437"
     fill-opacity="1"
     fill-rule="nonzero"
     id="path7" />
  <g
     clip-path="url(#b2fbc7cad0)"
     id="g8"
     transform="translate(-194.80249,-105.89453)">
    <path
       fill="#004aad"
       d="M 404.96484,230.33984 V 105.89453 l -44.53125,25.71484 c -2.66406,1.53516 -4.3125,4.37891 -4.3125,7.45313 0,1.45312 0.3711,2.87109 1.0625,4.14062 l 47.78125,87.13672"
       fill-opacity="1"
       fill-rule="nonzero"
       id="path8" />
  </g>
  <g
     clip-path="url(#363d8534d1)"
     id="g9"
     transform="translate(-194.80249,-105.89453)">
    <path
       fill="#ffffff"
       d="m 522.74609,399.65234 33.96875,-19.60937 c 3.02735,-1.75391 4.89063,-4.98047 4.89063,-8.47656 V 201.98437 c 0,-3.49609 -1.86328,-6.72265 -4.89063,-8.47656 l -33.96875,-19.60937 c -6.52343,-3.76563 -14.67968,0.9414 -14.67968,8.48437 v 208.78516 c 0,7.54297 8.15625,12.25 14.67968,8.48437"
       fill-opacity="1"
       fill-rule="nonzero"
       id="path9" />
  </g>
  <g
     clip-path="url(#ccb06dfe9d)"
     id="g10"
     transform="translate(-194.80249,-105.89453)">
    <path
       fill="#ffffff"
       d="m 453.80078,434.48828 c 0,-1.45312 -0.36328,-2.87109 -1.05859,-4.14062 l -47.77735,-87.14063 v 124.44922 l 44.53125,-25.71484 c 2.66407,-1.53516 4.30469,-4.37891 4.30469,-7.45313"
       fill-opacity="1"
       fill-rule="nonzero"
       id="path10" />
  </g>
  <g
     clip-path="url(#faa8552de8)"
     id="g11"
     transform="translate(-194.80249,-105.89453)">
    <path
       fill="#ffffff"
       d="M 453.80078,319.41016 V 139.74219 c 0,-3.4961 -1.86719,-6.72266 -4.89844,-8.47657 l -43.9375,-25.37109 v 124.44531 l 48.83594,89.07032"
       fill-opacity="1"
       fill-rule="nonzero"
       id="path11" />
  </g>
  <g
     fill="#004aad"
     fill-opacity="1"
     id="g14"
     transform="translate(-194.80249,-105.89453)">
    <g
       transform="translate(223.71311,568.02996)"
       id="g13">
      <g
         id="g12">
        <path
           d="m 21.675781,-37.8125 35.1875,39.269531 h 3.691407 V -69.402344 H 46.558594 v 39.269532 L 11.46875,-70.957031 H 7.777344 V 0 h 13.898437 z m 0,0"
           id="path12" />
      </g>
    </g>
  </g>
  <g
     fill="#004aad"
     fill-opacity="1"
     id="g17"
     transform="translate(-194.80249,-105.89453)">
    <g
       transform="translate(292.14185,568.02996)"
       id="g16">
      <g
         id="g15">
        <path
           d="M 21.675781,0 V -69.496094 H 7.777344 V 0 Z m 0,0"
           id="path14" />
      </g>
    </g>
  </g>
  <g
     fill="#004aad"
     fill-opacity="1"
     id="g20"
     transform="translate(-194.80249,-105.89453)">
    <g
       transform="translate(321.69063,568.02996)"
       id="g19">
      <g
         id="g18">
        <path
           d="M 4.570312,-4.472656 C 13.996094,0.390625 22.648438,0.875 26.535156,0.582031 39.558594,-0.0976562 47.53125,-8.941406 47.53125,-20.507812 c 0,-11.082032 -9.332031,-17.304688 -20.121094,-21.289063 -3.984375,-1.359375 -7.386718,-3.109375 -7.777344,-6.996094 -0.289062,-3.890625 1.945313,-7.484375 6.902344,-7.777343 2.140625,-0.09766 6.511719,-0.195313 14.191406,2.914062 l 1.75,-13.410156 c -8.941406,-3.113282 -13.707031,-3.113282 -17.300781,-2.917969 -11.566406,0.582031 -19.636719,9.527344 -19.636719,21.191406 0,11.664063 9.722657,17.203125 20.609376,21.1875 3.886718,1.363281 6.898437,3.109375 7.191406,7.097657 0.386718,3.789062 -3.109375,6.707031 -7.191406,6.996093 -3.210938,0.292969 -11.859376,0.09766 -19.832032,-5.539062 z m 0,0"
           id="path17" />
      </g>
    </g>
  </g>
  <g
     fill="#004aad"
     fill-opacity="1"
     id="g23"
     transform="translate(-194.80249,-105.89453)">
    <g
       transform="translate(373.1094,568.02996)"
       id="g22">
      <g
         id="g21">
        <path
           d="m 52.003906,-53.363281 1.652344,-14.289063 c -4.179688,-1.84375 -8.847656,-2.71875 -13.707031,-2.71875 -47.042969,0 -47.140625,70.566406 0,70.566406 4.859375,0 10.984375,-1.167968 15.261719,-2.917968 l -1.847657,-14.382813 c -2.625,1.359375 -7.386719,3.109375 -13.414062,3.109375 -27.507813,0 -27.507813,-42.378906 0,-42.378906 6.027343,0 9.429687,1.652344 12.054687,3.011719 z m 0,0"
           id="path20" />
      </g>
    </g>
  </g>
  <g
     fill="#004aad"
     fill-opacity="1"
     id="g26"
     transform="translate(-194.80249,-105.89453)">
    <g
       transform="translate(431.62374,568.02996)"
       id="g25">
      <g
         id="g24">
        <path
           d="M 56.375,0 V -69.496094 H 42.476562 v 27.796875 H 21.675781 V -69.496094 H 7.777344 V 0 H 21.675781 V -27.800781 H 42.476562 V 0 Z m 0,0"
           id="path23" />
      </g>
    </g>
  </g>
  <g
     fill="#004aad"
     fill-opacity="1"
     id="g29"
     transform="translate(-194.80249,-105.89453)">
    <g
       transform="translate(495.87287,568.02996)"
       id="g28">
      <g
         id="g27">
        <path
           d="m 1.554688,0 h 15.746093 l 2.722657,-7.484375 H 43.058594 L 45.878906,0 H 61.527344 L 32.269531,-72.023438 H 30.8125 Z m 23.523437,-20.507812 6.511719,-18.082032 6.316406,18.082032 z m 0,0"
           id="path26" />
      </g>
    </g>
  </g>
  <g
     fill="#004aad"
     fill-opacity="1"
     id="g32"
     transform="translate(-194.80249,-105.89453)">
    <g
       transform="translate(559.34441,568.02996)"
       id="g31">
      <g
         id="g30">
        <path
           d="M 7.777344,-69.496094 V 0 h 35.960937 v -13.898438 h -22.0625 v -55.597656 z m 0,0"
           id="path29" />
      </g>
    </g>
  </g>
  <g
     fill="#ffffff"
     fill-opacity="1"
     id="g35"
     transform="translate(-194.80249,-105.89453)">
    <g
       transform="translate(192.85717,666.84996)"
       id="g34">
      <g
         id="g33">
        <path
           d="m 33.144531,0 v -55.597656 h 17.300781 v -13.804688 h -48.5 v 13.804688 H 19.246094 V 0 Z m 0,0"
           id="path32" />
      </g>
    </g>
  </g>
  <g
     fill="#ffffff"
     fill-opacity="1"
     id="g38"
     transform="translate(-194.80249,-105.89453)">
    <g
       transform="translate(246.02552,666.84996)"
       id="g37">
      <g
         id="g36">
        <path
           d="m 43.738281,0 v -13.898438 h -22.0625 V -27.800781 H 39.949219 V -41.699219 H 21.675781 V -55.597656 H 42.574219 V -69.496094 H 7.777344 V 0 Z m 0,0"
           id="path35" />
      </g>
    </g>
  </g>
  <g
     fill="#ffffff"
     fill-opacity="1"
     id="g41"
     transform="translate(-194.80249,-105.89453)">
    <g
       transform="translate(295.01428,666.84996)"
       id="g40">
      <g
         id="g39">
        <path
           d="m 52.003906,-53.363281 1.652344,-14.289063 c -4.179688,-1.84375 -8.847656,-2.71875 -13.707031,-2.71875 -47.042969,0 -47.140625,70.566406 0,70.566406 4.859375,0 10.984375,-1.167968 15.261719,-2.917968 l -1.847657,-14.382813 c -2.625,1.359375 -7.386719,3.109375 -13.414062,3.109375 -27.507813,0 -27.507813,-42.378906 0,-42.378906 6.027343,0 9.429687,1.652344 12.054687,3.011719 z m 0,0"
           id="path38" />
      </g>
    </g>
  </g>
  <g
     fill="#ffffff"
     fill-opacity="1"
     id="g44"
     transform="translate(-194.80249,-105.89453)">
    <g
       transform="translate(353.52862,666.84996)"
       id="g43">
      <g
         id="g42">
        <path
           d="M 56.375,0 V -69.496094 H 42.476562 v 27.796875 H 21.675781 V -69.496094 H 7.777344 V 0 H 21.675781 V -27.800781 H 42.476562 V 0 Z m 0,0"
           id="path41" />
      </g>
    </g>
  </g>
  <g
     fill="#ffffff"
     fill-opacity="1"
     id="g50"
     transform="translate(-194.80249,-105.89453)">
    <g
       transform="translate(445.38252,666.84996)"
       id="g49">
      <g
         id="g48">
        <path
           d="m 33.144531,0 v -55.597656 h 17.300781 v -13.804688 h -48.5 v 13.804688 H 19.246094 V 0 Z m 0,0"
           id="path47" />
      </g>
    </g>
  </g>
  <g
     fill="#ffffff"
     fill-opacity="1"
     id="g53"
     transform="translate(-194.80249,-105.89453)">
    <g
       transform="translate(498.55086,666.84996)"
       id="g52">
      <g
         id="g51">
        <path
           d="M 21.675781,0 V -69.496094 H 7.777344 V 0 Z m 0,0"
           id="path50" />
      </g>
    </g>
  </g>
  <g
     fill="#ffffff"
     fill-opacity="1"
     id="g56"
     transform="translate(-194.80249,-105.89453)">
    <g
       transform="translate(528.09964,666.84996)"
       id="g55">
      <g
         id="g54">
        <path
           d="m 21.675781,0 v -26.535156 h 13.414063 c 26.921875,0 27.019531,-42.867188 0,-42.867188 H 7.777344 V 0 Z m 0,-40.046875 v -15.550781 h 12.246094 c 9.332031,0 9.332031,15.550781 0,15.550781 z m 0,0"
           id="path53" />
      </g>
    </g>
  </g>
  <g
     fill="#ffffff"
     fill-opacity="1"
     id="g59"
     transform="translate(-194.80249,-105.89453)">
    <g
       transform="translate(586.71118,666.84996)"
       id="g58">
      <g
         id="g57">
        <path
           d="M 4.570312,-4.472656 C 13.996094,0.390625 22.648438,0.875 26.535156,0.582031 39.558594,-0.0976562 47.53125,-8.941406 47.53125,-20.507812 c 0,-11.082032 -9.332031,-17.304688 -20.121094,-21.289063 -3.984375,-1.359375 -7.386718,-3.109375 -7.777344,-6.996094 -0.289062,-3.890625 1.945313,-7.484375 6.902344,-7.777343 2.140625,-0.09766 6.511719,-0.195313 14.191406,2.914062 l 1.75,-13.410156 c -8.941406,-3.113282 -13.707031,-3.113282 -17.300781,-2.917969 -11.566406,0.582031 -19.636719,9.527344 -19.636719,21.191406 0,11.664063 9.722657,17.203125 20.609376,21.1875 3.886718,1.363281 6.898437,3.109375 7.191406,7.097657 0.386718,3.789062 -3.109375,6.707031 -7.191406,6.996093 -3.210938,0.292969 -11.859376,0.09766 -19.832032,-5.539062 z m 0,0"
           id="path56" />
      </g>
    </g>
  </g>
</svg>
